<?xml version="1.0" encoding="UTF-8" standalone="no"?>
<!-- Uploaded to: SVG Repo, www.svgrepo.com, Generator: SVG Repo Mixer Tools -->

<svg
   fill="#000000"
   width="800px"
   height="800px"
   viewBox="0 0 32 32"
   id="Camada_1"
   version="1.1"
   xml:space="preserve"
   sodipodi:docname="logo (copy).svg"
   inkscape:version="1.1.2 (0a00cf5339, 2022-02-04)"
   xmlns:inkscape="http://www.inkscape.org/namespaces/inkscape"
   xmlns:sodipodi="http://sodipodi.sourceforge.net/DTD/sodipodi-0.dtd"
   xmlns="http://www.w3.org/2000/svg"
   xmlns:svg="http://www.w3.org/2000/svg"><defs
     id="defs9" /><sodipodi:namedview
     id="namedview7"
     pagecolor="#ffffff"
     bordercolor="#000000"
     borderopacity="0.25"
     inkscape:pageshadow="2"
     inkscape:pageopacity="0.0"
     inkscape:pagecheckerboard="0"
     showgrid="false"
     inkscape:zoom="1.055"
     inkscape:cx="400"
     inkscape:cy="400.47393"
     inkscape:window-width="1920"
     inkscape:window-height="1016"
     inkscape:window-x="0"
     inkscape:window-y="27"
     inkscape:window-maximized="1"
     inkscape:current-layer="Camada_1" /><style
     type="text/css"
     id="style2">
	.st0{fill-rule:evenodd;clip-rule:evenodd;}
</style><path
     class="st0"
     d="M13.8,4h4.5v2.2h1.2c0.6,0,1,0.4,1,1v4.6l-0.6,0.8l6.2,10.8l0.9,3.9c0.1,0.5-0.5,0.9-0.9,0.5l-2.9-2.7l-2-3.5  C19.6,22.5,17.9,23,16,23s-3.6-0.5-5.1-1.4l-2,3.5L6,27.8c-0.4,0.4-1.1,0-0.9-0.5l0.9-3.9l2.3-4.1c-1.5-1.7-2.3-4-2.3-6.4  c0-0.4,0-0.8,0.1-1.1h3c-0.1,0.4-0.1,0.7-0.1,1.1c0,1.3,0.4,2.5,1,3.6l2.3-3.9l-0.6-0.8V7.2c0-0.6,0.4-1,1-1h1.2V4z M14.4,15.4  L12.4,19c1.1,0.6,2.3,1,3.6,1s2.6-0.4,3.6-1l-2.1-3.6l-0.8,1c-0.4,0.5-1.2,0.5-1.6,0L14.4,15.4z M14.1,11.8L14.1,11.8  c0.4,0.7,1.1,1.1,1.9,1.1c0.8,0,1.6-0.4,1.9-1.1c0.2-0.3,0.3-0.7,0.3-1.1c0-1.2-1-2.2-2.2-2.2s-2.2,1-2.2,2.2  C13.8,11.1,13.9,11.5,14.1,11.8z"
     id="path4"
     style="fill:#ffffff" /></svg>
